<mxfile host="app.diagrams.net" modified="2021-12-25T00:23:25.143Z" agent="5.0 (Windows NT 10.0; Win64; x64) AppleWebKit/537.36 (KHTML, like Gecko) Chrome/96.0.4664.110 Safari/537.36 Edg/96.0.1054.62" etag="wQix2vLMxsi8M8Wl5BuW" version="15.0.2" type="github">
  <diagram id="z-d8yrUDo53EPfW47OUz" name="Page-1">
    <mxGraphModel dx="1408" dy="780" grid="1" gridSize="10" guides="1" tooltips="1" connect="1" arrows="1" fold="1" page="1" pageScale="1" pageWidth="850" pageHeight="1100" background="#F1FAEE" math="0" shadow="1">
      <root>
        <mxCell id="0" />
        <mxCell id="1" parent="0" />
        <mxCell id="vqWG_zPsHUunpBF55EWM-1" value="&lt;h1&gt;&lt;font style=&quot;font-size: 24px&quot;&gt;GUI&lt;/font&gt;&lt;/h1&gt;" style="whiteSpace=wrap;html=1;fillColor=#A8DADC;strokeColor=#457B9D;fontColor=#1D3557;" parent="1" vertex="1">
          <mxGeometry x="90" y="150" width="120" height="60" as="geometry" />
        </mxCell>
        <mxCell id="vqWG_zPsHUunpBF55EWM-2" value="&lt;h1&gt;CLI&lt;/h1&gt;" style="whiteSpace=wrap;html=1;fillColor=#A8DADC;strokeColor=#457B9D;fontColor=#1D3557;rounded=0;sketch=0;" parent="1" vertex="1">
          <mxGeometry x="290" y="150" width="120" height="60" as="geometry" />
        </mxCell>
        <mxCell id="vqWG_zPsHUunpBF55EWM-4" value="&lt;font style=&quot;font-size: 24px&quot;&gt;&lt;b&gt;Controler&lt;/b&gt;&lt;/font&gt;" style="rounded=0;whiteSpace=wrap;html=1;sketch=0;fontColor=#1D3557;strokeColor=#457B9D;fillColor=#A8DADC;" parent="1" vertex="1">
          <mxGeometry x="190" y="20" width="120" height="60" as="geometry" />
        </mxCell>
        <mxCell id="vqWG_zPsHUunpBF55EWM-5" value="&lt;font style=&quot;font-size: 24px&quot;&gt;&lt;b&gt;Board&lt;/b&gt;&lt;/font&gt;" style="rounded=0;whiteSpace=wrap;html=1;sketch=0;fontColor=#1D3557;strokeColor=#457B9D;fillColor=#A8DADC;" parent="1" vertex="1">
          <mxGeometry x="550" y="20" width="120" height="60" as="geometry" />
        </mxCell>
        <mxCell id="vqWG_zPsHUunpBF55EWM-6" value="&lt;font style=&quot;font-size: 24px&quot;&gt;&lt;b&gt;Person&lt;/b&gt;&lt;/font&gt;" style="rounded=0;whiteSpace=wrap;html=1;sketch=0;fontColor=#1D3557;strokeColor=#457B9D;fillColor=#A8DADC;" parent="1" vertex="1">
          <mxGeometry x="465" y="150" width="120" height="60" as="geometry" />
        </mxCell>
        <mxCell id="vqWG_zPsHUunpBF55EWM-7" value="&lt;font style=&quot;font-size: 24px&quot;&gt;&lt;b&gt;AI&lt;/b&gt;&lt;/font&gt;" style="rounded=0;whiteSpace=wrap;html=1;sketch=0;fontColor=#1D3557;strokeColor=#457B9D;fillColor=#A8DADC;" parent="1" vertex="1">
          <mxGeometry x="640" y="150" width="120" height="60" as="geometry" />
        </mxCell>
        <mxCell id="vqWG_zPsHUunpBF55EWM-10" value="" style="endArrow=classic;html=1;fontColor=#1D3557;strokeColor=#457B9D;fillColor=#A8DADC;entryX=0.433;entryY=1.042;entryDx=0;entryDy=0;entryPerimeter=0;" parent="1" target="vqWG_zPsHUunpBF55EWM-5" edge="1">
          <mxGeometry width="50" height="50" relative="1" as="geometry">
            <mxPoint x="530" y="150" as="sourcePoint" />
            <mxPoint x="580" y="100" as="targetPoint" />
          </mxGeometry>
        </mxCell>
        <mxCell id="vqWG_zPsHUunpBF55EWM-11" value="" style="endArrow=classic;html=1;fontColor=#1D3557;strokeColor=#457B9D;fillColor=#A8DADC;exitX=0.5;exitY=0;exitDx=0;exitDy=0;entryX=0.5;entryY=1;entryDx=0;entryDy=0;" parent="1" source="vqWG_zPsHUunpBF55EWM-2" target="vqWG_zPsHUunpBF55EWM-4" edge="1">
          <mxGeometry width="50" height="50" relative="1" as="geometry">
            <mxPoint x="415" y="75" as="sourcePoint" />
            <mxPoint x="465" y="25" as="targetPoint" />
          </mxGeometry>
        </mxCell>
        <mxCell id="vqWG_zPsHUunpBF55EWM-12" value="" style="endArrow=classic;html=1;fontColor=#1D3557;strokeColor=#457B9D;fillColor=#A8DADC;entryX=0.454;entryY=1.028;entryDx=0;entryDy=0;entryPerimeter=0;" parent="1" target="vqWG_zPsHUunpBF55EWM-4" edge="1">
          <mxGeometry width="50" height="50" relative="1" as="geometry">
            <mxPoint x="140" y="150" as="sourcePoint" />
            <mxPoint x="190" y="100" as="targetPoint" />
          </mxGeometry>
        </mxCell>
        <mxCell id="vqWG_zPsHUunpBF55EWM-13" value="" style="endArrow=classic;html=1;fontColor=#1D3557;strokeColor=#457B9D;fillColor=#A8DADC;entryX=0.5;entryY=1;entryDx=0;entryDy=0;" parent="1" target="vqWG_zPsHUunpBF55EWM-5" edge="1">
          <mxGeometry width="50" height="50" relative="1" as="geometry">
            <mxPoint x="710" y="150" as="sourcePoint" />
            <mxPoint x="770" y="60" as="targetPoint" />
          </mxGeometry>
        </mxCell>
        <mxCell id="vqWG_zPsHUunpBF55EWM-15" value="" style="endArrow=classic;html=1;fontColor=#1D3557;strokeColor=#457B9D;fillColor=#A8DADC;exitX=1;exitY=0.5;exitDx=0;exitDy=0;" parent="1" source="vqWG_zPsHUunpBF55EWM-4" edge="1">
          <mxGeometry width="50" height="50" relative="1" as="geometry">
            <mxPoint x="380" y="40" as="sourcePoint" />
            <mxPoint x="550" y="50" as="targetPoint" />
          </mxGeometry>
        </mxCell>
        <mxCell id="vqWG_zPsHUunpBF55EWM-21" value="&lt;h1&gt;&lt;font style=&quot;font-size: 24px&quot;&gt;GUI&lt;/font&gt;&lt;/h1&gt;" style="whiteSpace=wrap;html=1;fillColor=#A8DADC;strokeColor=#457B9D;fontColor=#1D3557;" parent="1" vertex="1">
          <mxGeometry x="90" y="490" width="120" height="60" as="geometry" />
        </mxCell>
        <mxCell id="vqWG_zPsHUunpBF55EWM-22" value="&lt;h1&gt;CLI&lt;/h1&gt;" style="whiteSpace=wrap;html=1;fillColor=#A8DADC;strokeColor=#457B9D;fontColor=#1D3557;rounded=0;sketch=0;" parent="1" vertex="1">
          <mxGeometry x="290" y="490" width="120" height="60" as="geometry" />
        </mxCell>
        <mxCell id="vqWG_zPsHUunpBF55EWM-23" value="&lt;font style=&quot;font-size: 24px&quot;&gt;&lt;b&gt;Controller&lt;/b&gt;&lt;/font&gt;" style="rounded=0;whiteSpace=wrap;html=1;sketch=0;fontColor=#1D3557;strokeColor=#457B9D;fillColor=#A8DADC;" parent="1" vertex="1">
          <mxGeometry x="190" y="360" width="120" height="60" as="geometry" />
        </mxCell>
        <mxCell id="vqWG_zPsHUunpBF55EWM-24" value="&lt;font style=&quot;font-size: 24px&quot;&gt;&lt;b&gt;Engine&lt;/b&gt;&lt;/font&gt;" style="rounded=0;whiteSpace=wrap;html=1;sketch=0;fontColor=#1D3557;strokeColor=#457B9D;fillColor=#A8DADC;" parent="1" vertex="1">
          <mxGeometry x="550" y="360" width="120" height="60" as="geometry" />
        </mxCell>
        <mxCell id="vqWG_zPsHUunpBF55EWM-25" value="&lt;font style=&quot;font-size: 24px&quot;&gt;&lt;b&gt;DNT&lt;/b&gt;&lt;/font&gt;" style="rounded=0;whiteSpace=wrap;html=1;sketch=0;fontColor=#1D3557;strokeColor=#457B9D;fillColor=#A8DADC;" parent="1" vertex="1">
          <mxGeometry x="465" y="490" width="120" height="60" as="geometry" />
        </mxCell>
        <mxCell id="vqWG_zPsHUunpBF55EWM-26" value="&lt;font style=&quot;font-size: 24px&quot;&gt;&lt;b&gt;AI&lt;/b&gt;&lt;/font&gt;" style="rounded=0;whiteSpace=wrap;html=1;sketch=0;fontColor=#1D3557;strokeColor=#457B9D;fillColor=#A8DADC;" parent="1" vertex="1">
          <mxGeometry x="640" y="490" width="120" height="60" as="geometry" />
        </mxCell>
        <mxCell id="vqWG_zPsHUunpBF55EWM-27" value="" style="endArrow=classic;html=1;fontColor=#1D3557;strokeColor=#457B9D;fillColor=#A8DADC;entryX=0.433;entryY=1.042;entryDx=0;entryDy=0;entryPerimeter=0;" parent="1" target="vqWG_zPsHUunpBF55EWM-24" edge="1">
          <mxGeometry width="50" height="50" relative="1" as="geometry">
            <mxPoint x="530" y="490" as="sourcePoint" />
            <mxPoint x="580" y="440" as="targetPoint" />
          </mxGeometry>
        </mxCell>
        <mxCell id="vqWG_zPsHUunpBF55EWM-28" value="" style="endArrow=classic;html=1;fontColor=#1D3557;strokeColor=#457B9D;fillColor=#A8DADC;exitX=0.5;exitY=0;exitDx=0;exitDy=0;entryX=0.5;entryY=1;entryDx=0;entryDy=0;" parent="1" source="vqWG_zPsHUunpBF55EWM-22" target="vqWG_zPsHUunpBF55EWM-23" edge="1">
          <mxGeometry width="50" height="50" relative="1" as="geometry">
            <mxPoint x="415" y="415" as="sourcePoint" />
            <mxPoint x="465" y="365" as="targetPoint" />
          </mxGeometry>
        </mxCell>
        <mxCell id="vqWG_zPsHUunpBF55EWM-29" value="" style="endArrow=classic;html=1;fontColor=#1D3557;strokeColor=#457B9D;fillColor=#A8DADC;entryX=0.454;entryY=1.028;entryDx=0;entryDy=0;entryPerimeter=0;" parent="1" target="vqWG_zPsHUunpBF55EWM-23" edge="1">
          <mxGeometry width="50" height="50" relative="1" as="geometry">
            <mxPoint x="140" y="490" as="sourcePoint" />
            <mxPoint x="190" y="440" as="targetPoint" />
          </mxGeometry>
        </mxCell>
        <mxCell id="vqWG_zPsHUunpBF55EWM-30" value="" style="endArrow=classic;html=1;fontColor=#1D3557;strokeColor=#457B9D;fillColor=#A8DADC;entryX=0.5;entryY=1;entryDx=0;entryDy=0;" parent="1" target="vqWG_zPsHUunpBF55EWM-24" edge="1">
          <mxGeometry width="50" height="50" relative="1" as="geometry">
            <mxPoint x="710" y="490" as="sourcePoint" />
            <mxPoint x="770" y="400" as="targetPoint" />
          </mxGeometry>
        </mxCell>
        <mxCell id="vqWG_zPsHUunpBF55EWM-31" value="" style="endArrow=classic;html=1;fontColor=#1D3557;strokeColor=#457B9D;fillColor=#A8DADC;exitX=1;exitY=0.5;exitDx=0;exitDy=0;" parent="1" source="vqWG_zPsHUunpBF55EWM-23" edge="1">
          <mxGeometry width="50" height="50" relative="1" as="geometry">
            <mxPoint x="380" y="380" as="sourcePoint" />
            <mxPoint x="550" y="390" as="targetPoint" />
          </mxGeometry>
        </mxCell>
      </root>
    </mxGraphModel>
  </diagram>
</mxfile>
